<?xml version="1.0" encoding="utf-8"?>
<!-- Generator: Adobe Illustrator 16.0.4, SVG Export Plug-In . SVG Version: 6.00 Build 0)  -->
<!DOCTYPE svg PUBLIC "-//W3C//DTD SVG 1.1//EN" "http://www.w3.org/Graphics/SVG/1.1/DTD/svg11.dtd">
<svg version="1.1" id="Layer_1" xmlns="http://www.w3.org/2000/svg" xmlns:xlink="http://www.w3.org/1999/xlink" x="0px" y="0px"
	 width="40px" height="40px" viewBox="0 0 40 40" enable-background="new 0 0 40 40" xml:space="preserve">
<circle fill="#FFFFFF" stroke="#0000FF" stroke-width="2" stroke-linecap="square" stroke-linejoin="round" stroke-miterlimit="10" cx="19.499" cy="20.312" r="14.471"/>
<g>
	<path fill="#0000FF" d="M18.071,20.681c0-0.086-0.043-0.191-0.131-0.314c-0.087-0.123-0.192-0.24-0.316-0.349
		c-0.124-0.109-0.247-0.204-0.37-0.283c-0.124-0.08-0.214-0.12-0.272-0.12h-0.349v-0.697c0.566-0.116,1.104-0.257,1.612-0.425
		c0.508-0.167,0.958-0.323,1.351-0.468c0.465-0.16,0.893-0.327,1.286-0.501v8.715c0,0.086,0.044,0.199,0.131,0.336
		c0.087,0.139,0.185,0.273,0.294,0.404s0.222,0.242,0.338,0.338c0.116,0.094,0.211,0.141,0.283,0.141h0.502v0.785h-5.861v-0.785
		h0.392c0.072,0,0.17-0.043,0.294-0.131c0.123-0.086,0.247-0.195,0.37-0.326s0.229-0.266,0.316-0.402
		c0.087-0.139,0.131-0.258,0.131-0.359V20.681z M20.926,14.102c0,0.233-0.048,0.454-0.142,0.665
		c-0.095,0.211-0.222,0.392-0.382,0.545c-0.16,0.152-0.345,0.276-0.556,0.37c-0.21,0.095-0.439,0.142-0.686,0.142
		c-0.247,0-0.476-0.047-0.687-0.142c-0.21-0.094-0.396-0.218-0.555-0.37c-0.16-0.153-0.287-0.334-0.381-0.545
		c-0.095-0.21-0.142-0.432-0.142-0.665c0-0.232,0.047-0.454,0.142-0.664c0.094-0.21,0.221-0.392,0.381-0.545
		c0.16-0.152,0.345-0.275,0.555-0.37c0.21-0.094,0.439-0.142,0.687-0.142c0.247,0,0.476,0.047,0.686,0.142
		c0.21,0.095,0.396,0.218,0.556,0.37c0.16,0.153,0.287,0.334,0.382,0.545C20.878,13.648,20.926,13.87,20.926,14.102z"/>
</g>
</svg>
